<svg width="227" height="72" viewBox="0 0 227 72" fill="none" xmlns="http://www.w3.org/2000/svg">
<path d="M106.113 18.36L130.467 18.9L131.223 24.516L110.163 50.328L130.305 48.438L130.629 54L104.223 54.486L104.385 50.868L119.127 23.274L106.275 21.978L106.113 18.36ZM136.329 18.36L160.683 18.9L161.439 24.516L140.379 50.328L160.521 48.438L160.845 54L134.439 54.486L134.601 50.868L149.343 23.274L136.491 21.978L136.329 18.36ZM192.25 54L171.136 54.486L168.598 18.9L192.412 18.144L192.25 21.762L180.856 23.112L179.452 34.29L190.954 34.182L191.224 39.042L179.02 38.124L177.562 50.166L192.466 48.438L192.25 54ZM198.431 18.846L226.025 18.09L225.863 21.708L218.303 22.464L214.955 54.216L209.015 54.756L206.315 23.652L198.755 24.408L198.431 18.846Z" fill="black"/>
<path d="M14.7334 50.058C18.5134 50.058 22.1314 49.41 25.5874 48.114L27.4234 53.946C24.5074 54.846 21.5374 55.296 18.5134 55.296C15.4894 55.296 12.7894 54.972 10.4134 54.324C8.07343 53.676 6.27343 52.83 5.01343 51.786C4.40143 48.762 4.09543 45.774 4.09543 42.822C4.09543 36.81 5.22943 31.356 7.49743 26.46C9.76543 21.564 12.3754 18.144 15.3274 16.2L25.7494 22.788C20.7814 25.956 16.8394 29.988 13.9234 34.884C11.0074 39.78 9.54943 44.712 9.54943 49.68C11.0974 49.932 12.8254 50.058 14.7334 50.058ZM55.0149 54L34.9809 54.486L32.4429 18.9L45.2949 18.09L41.4069 50.112L55.2309 48.438L55.0149 54Z" fill="black"/>
<path fill-rule="evenodd" clip-rule="evenodd" d="M64.0428 16H93.9648C94.2871 16 94.5244 16.2637 94.5479 16.5831L97.0033 50.4139C97.0267 50.7303 96.7396 50.9969 96.4202 50.9969H61.5844C61.268 50.9969 60.9779 50.7362 61.0013 50.4139L63.4567 16.5831C63.4802 16.2608 63.7204 16 64.0428 16ZM70.7234 22.9648V27.4566V27.4596H70.7204C70.7204 29.6396 71.617 31.6232 73.0528 33.0619C74.4914 34.5006 76.4751 35.3972 78.6522 35.3972V35.3942H78.661H78.6668V35.3972C80.8468 35.3972 82.8305 34.5035 84.2691 33.0648C85.7078 31.6261 86.6015 29.6425 86.6044 27.4654H86.5986V27.4566V22.9121C85.6316 22.5956 84.9343 21.6873 84.9343 20.6149C84.9343 19.2788 86.0155 18.1946 87.3516 18.1946C88.6877 18.1946 89.7689 19.2788 89.7689 20.6149C89.7689 21.4793 89.3118 22.2411 88.6291 22.6689V27.4566V27.4654H88.6262C88.6233 30.2021 87.504 32.6927 85.7049 34.4918C83.9 36.2967 81.4064 37.4189 78.6668 37.4219V37.4277H78.661H78.6522V37.4219C75.9155 37.4189 73.4278 36.2996 71.6229 34.5006C69.818 32.6956 68.6957 30.2021 68.6928 27.4625H68.6899V27.4566V22.5429C68.1068 22.1004 67.7288 21.4031 67.7288 20.6149C67.7288 19.2788 68.8129 18.1946 70.1491 18.1946C71.4852 18.1946 72.5664 19.2788 72.5664 20.6149C72.5722 21.7547 71.784 22.707 70.7234 22.9648Z" fill="#45C9A1"/>
</svg>
